<svg xmlns="http://www.w3.org/2000/svg" fill="#fff" viewBox="9.27 7 45.4 49.95">
    <rect width="19.69" height="19.69" x="22.15" y="19.88" rx="2.89" ry="2.89" transform="rotate(-45 31.994 29.728)"/>
    <path d="M12.54 29.29A19.47 19.47 0 0 0 46.41 42.8l-2.66-2.28a16 16 0 1 1-12.5-26.75v-3.5a19.47 19.47 0 0 0-18.71 19.02Z"/>
    <path d="M48 29.72a15.89 15.89 0 0 1-3.25 9.65l2.66 2.28a19.47 19.47 0 0 0-14.66-31.38v3.51A16 16 0 0 1 48 29.72Z"/>
    <path d="M32.37 7a22.73 22.73 0 0 0-18.9 35.89v-2.8a21.4 21.4 0 0 1-2.07-15.58A20.84 20.84 0 0 1 27.13 9a21.25 21.25 0 0 1 23.4 31v2.8A22.73 22.73 0 0 0 32.37 7Z"/>
    <path d="M32 51a21.19 21.19 0 0 1-16.66-8.08.21.21 0 0 0-.34.08v1.68a.21.21 0 0 0 .05.14 22.71 22.71 0 0 0 12 7.08.22.22 0 0 1 .13.08l4.31 4.78a.65.65 0 0 0 .91 0L36.75 52a.21.21 0 0 1 .1-.06A22.71 22.71 0 0 0 49 44.83a.21.21 0 0 0 .05-.14V43a.21.21 0 0 0-.37-.13A21.19 21.19 0 0 1 32 51Z"/>
</svg>
