<svg xmlns="http://www.w3.org/2000/svg" fill="none" viewBox="0 7 40 26.94">
    <g fill="#fff">
        <path d="M39.45 19.137 27.863 7.55a1.869 1.869 0 0 0-1.33-.55 1.87 1.87 0 0 0-1.331.55l-7.558 7.557h7.007l.301-1.706c.203-1.15 1.044-1.665 1.787-1.665.55 0 1.066.26 1.453.73l5.266 6.393c.407.494.574 1.153.459 1.809a2.539 2.539 0 0 1-.86 1.485l-7.52 6.392c-.427.362-.878.546-1.342.546a1.64 1.64 0 0 1-1.26-.584c-.244-.29-.505-.802-.366-1.589l.205-1.166H17.57l7.632 7.632c.354.354.827.55 1.33.55a1.87 1.87 0 0 0 1.331-.55L39.45 21.797a1.883 1.883 0 0 0 0-2.66Z"/>
        <path d="M14.207 32.793a1.042 1.042 0 0 1-.739.304c-.267 0-.536-.101-.739-.304l-1.916-1.916a.05.05 0 0 0 .014-.025l.222-.96a.05.05 0 0 0-.014-.05L4.092 22.9a.051.051 0 0 0-.049-.013l-.96.221a.05.05 0 0 0-.025.014l-1.916-1.916a1.048 1.048 0 0 1 0-1.477l1.916-1.916a.05.05 0 0 0 .025.014l.96.221a.053.053 0 0 0 .05-.014l6.942-6.942a.054.054 0 0 0 .014-.048l-.221-.961a.05.05 0 0 0-.015-.025l1.916-1.916c.204-.203.472-.305.74-.305.267 0 .535.102.738.305l3.43 3.43.59-.591-3.429-3.43a1.869 1.869 0 0 0-1.33-.55 1.87 1.87 0 0 0-1.33.55L.55 19.138a1.883 1.883 0 0 0 0 2.66l11.587 11.587c.354.355.827.55 1.33.55a1.87 1.87 0 0 0 1.331-.55l3.427-3.426-.591-.591-3.427 3.425Z"/>
        <path d="M27.063 13.397c-.11-.133-.222-.197-.324-.197-.16 0-.293.159-.345.456l-.514 2.915H11.332a.551.551 0 0 0-.519.44l-1.205 6.837c-.042.242.121.44.364.44H24.52l-.509 2.884c-.052.297.025.456.185.456.102 0 .237-.064.394-.197l7.52-6.393c.404-.344.503-.905.22-1.248l-5.267-6.393Z"/>
    </g>
</svg>
