<?xml version="1.0" standalone="no"?>
<!DOCTYPE svg PUBLIC "-//W3C//DTD SVG 20010904//EN"
 "http://www.w3.org/TR/2001/REC-SVG-20010904/DTD/svg10.dtd">
<svg version="1.0" xmlns="http://www.w3.org/2000/svg"
 width="128.000000pt" height="128.000000pt" viewBox="0 0 128.000000 128.000000"
 preserveAspectRatio="xMidYMid meet">
<metadata>
Created by potrace 1.14, written by Peter Selinger 2001-2017
</metadata>
<g transform="translate(0.000000,128.000000) scale(0.100000,-0.100000)"
fill="#000000" stroke="none">
<path d="M2 1088 l3 -192 253 0 252 0 0 -63 0 -63 -255 0 -255 0 0 -65 0 -65
320 0 320 0 0 189 c0 171 -2 189 -17 193 -10 2 -125 3 -255 3 l-238 -1 0 63 0
63 203 1 c111 0 226 1 255 1 l52 0 0 64 0 64 -320 0 -320 0 2 -192z"/>
<path d="M769 1263 c0 -24 0 -583 0 -605 1 -17 17 -18 191 -18 l190 0 0 65 0
65 -82 -1 c-46 0 -103 0 -128 0 l-45 1 0 253 0 252 -62 3 c-55 3 -63 1 -64
-15z"/>
<path d="M893 512 l-123 -3 -1 -32 c-1 -37 0 -446 0 -464 1 -9 21 -13 64 -13
l62 0 0 192 0 193 63 0 c60 0 62 -1 63 -25 0 -14 1 -100 1 -192 l1 -168 64 0
63 0 0 255 0 255 -22 1 c-13 0 -43 1 -68 2 -25 1 -100 1 -167 -1z"/>
<path d="M0 255 l0 -255 65 0 66 0 -1 186 c-1 132 2 189 10 194 10 6 54 6 105
1 7 -1 11 -66 10 -191 l-1 -191 66 3 65 3 0 188 c-1 103 2 188 5 188 17 4 97
5 108 1 9 -3 12 -51 12 -193 l0 -189 65 0 65 0 0 255 0 255 -320 0 -320 0 0
-255z"/>
</g>
</svg>
